<svg xmlns="http://www.w3.org/2000/svg" width="731.67004" height="688.5769"
    viewBox="0 0 731.67004 688.5769" xmlns:xlink="http://www.w3.org/1999/xlink" role="img"
    artist="Katerina Limpitsouni" source="https://undraw.co/">
    <g>
        <path
            d="M549.19556,654.62891c-1.27295-10.4375-6.22327-20-10.32214-29.68359-33.40552-78.92188-11.474-169.04102-15.91809-254.62695-3.89337-74.97949-28.3399-147.1709-52.56232-218.2373-8.45886-24.81738-17.33527-50.31445-31.70941-71.93359,1.53998-5.4541,2.38177-11.20117,2.38177-17.14746,0-34.79395-28.20605-63-63-63-32.6806,0-59.54504,24.88477-62.68848,56.73828-18.65991,35.66699-35.50134,72.28516-50.41949,109.6709-14.86957,37.26465-27.98047,76.05078-28.9328,116.16113-.74847,31.52637,6.04871,62.7373,7.61963,94.23438,4.32623,86.73926-30.65253,176.2959-3.2738,258.71484,5.72888,17.24512,15.03406,34.59473,31.039,43.20117,13.07874,7.0332,28.62866,7.19531,43.47858,7.18945,27.8183-.01172,55.63654-.02246,83.45483-.0332,20.20276-.00781,40.40546-.0166,60.60822-.02441l58.86346-.02344c6.92487-.00293,14.22174-.10156,20.2002-3.5957,9.07843-5.30664,12.4538-17.16602,11.18085-27.60449Z"
            fill="#e6e6e6" />
        <ellipse cx="404.64756" cy="52.67022" rx="4.51236" ry="10.11387"
            transform="translate(-2.98974 34.07905) rotate(-4.80482)" fill="#3f3d56" />
        <ellipse cx="382.77842" cy="52.27409" rx="4.51236" ry="10.11387"
            transform="translate(-3.03341 32.24586) rotate(-4.80482)" fill="#3f3d56" />
        <g>
            <g>
                <path
                    d="M400.93509,304.01694c-2.50851-3.65607-7.54044-4.65311-11.94852-4.17545-4.40811,.47766-8.64536,2.09705-13.0675,2.41934-3.64471,.26562-7.29428-.35876-10.94858-.38007-4.75146-.02774-9.50632,.98026-13.83783,2.9335-14.18716,6.39755-22.25989,22.37732-23.03882,37.92072-.77896,15.5434,4.56332,30.74066,11.02087,44.90063,3.73203,8.18356,8.37134,16.70874,16.41797,20.72751,6.39752,3.19516,13.89383,2.99075,21.03955,2.71512,10.63535-.41019,21.27066-.8204,31.90601-1.23059,5.12781-.19778,10.25558-.39554,15.38339-.59332,7.31583-.28217,14.70032-.57416,21.78247-2.43011,16.43674-4.30737,30.25748-17.48688,35.34033-33.70059,5.21924-16.6488,1.3699-35.17395-7.15768-50.39575-5.22061-9.31888-12.80841-18.12701-23.10614-20.96469-5.53882-1.52628-11.39685-1.19724-17.13199-.85623-10.45056,.62137-20.90109,1.24277-31.35165,1.86414"
                    fill="#ff5722" />
                <g>
                    <path
                        d="M398.28409,311.08084s-18.46982,4.81821-7.22733,4.81821,24.67911,0,24.38507-2.40912c-.29401-2.40912-19.56686-40.95477-21.97598-40.95477s-16.0607,2.40912-10.43945,8.03033c5.62125,5.62125,15.25766,30.51535,15.25766,30.51535h.00003Z"
                        fill="#3f3d56" />
                    <g>
                        <path
                            d="M402.7626,405.83078c-18.22067-13.36234-8.52173-80.76212-8.09958-83.62433l1.19614,.17593c-.10214,.69431-10.01837,69.53934,7.61902,82.47305l-.71555,.97534h-.00003Z"
                            fill="#3f3d56" />
                        <path
                            d="M370.84778,399.88553c-14.18121-26.47202-8.60675-47.63638-1.43289-60.7301,7.76129-14.16647,19.03778-22.19107,19.15054-22.27078l.69547,.9895c-.11099,.07794-11.18674,7.96851-18.80814,21.90295-7.01385,12.82391-12.45374,33.56262,1.46121,59.53693l-1.06625,.5715h.00006Z"
                            fill="#3f3d56" />
                        <path
                            d="M430.82278,405.53616l-1.14655-.38611c13.27734-39.46182-16.18677-86.37201-16.4855-86.84079l1.01901-.6506c.07556,.11868,7.62433,12.04224,13.409,28.73083,5.34836,15.4299,10.24567,38.21667,3.20407,59.14667h-.00003Z"
                            fill="#3f3d56" />
                        <path
                            d="M465.4664,397.38992l-1.20676-.06848c2.05811-36.24536-8.75433-56.72781-18.18762-67.52786-10.18427-11.65964-20.94299-14.82474-21.05042-14.85544l.33063-1.16306c.45343,.1293,11.21274,3.29617,21.6308,15.22327,9.58087,10.96948,20.56512,31.73889,18.4834,68.3916l-.00003-.00003Z"
                            fill="#3f3d56" />
                        <path
                            d="M341.77097,365.87302c-3.11728-14.3046-1.35614-26.30374,5.23502-35.66382,10.85614-15.41632,31.34628-18.23898,31.55173-18.26556l.15585,1.19849c-.20074,.02658-20.18137,2.79019-30.72461,17.77139-6.38333,9.0708-8.07776,20.74637-5.03604,34.70206l-1.18198,.25742,.00003,.00003Z"
                            fill="#3f3d56" />
                        <path
                            d="M387.48859,311.29422c-.21844-.08325-21.99094-8.24307-32.26727-.09152l-.75098-.94699c10.8154-8.57898,32.53061-.44162,33.44925-.09152l-.431,1.13v.00003Z"
                            fill="#3f3d56" />
                        <path
                            d="M407.05063,309.54962c-.00412-.08206-.29874-8.2655,9.00052-11.13892l.3566,1.15482c-8.38004,2.59006-8.16275,9.62811-8.14917,9.92627l-1.20795,.05786v-.00003Z"
                            fill="#3f3d56" />
                        <path
                            d="M416.71475,314.71732l-.97061-.72086c.11041-.14819,11.22217-14.80054,27.17279-9.27979l-.39557,1.14301c-15.10519-5.22968-25.70154,8.71597-25.80664,8.85764h.00003Z"
                            fill="#3f3d56" />
                    </g>
                </g>
            </g>
            <g>
                <path
                    d="M470.10318,453.53516h-134.0166c-10.37549,0-19.30908-7.39844-21.24219-17.59277l-13.98877-73.75781c-1.20386-6.34766,.46948-12.84277,4.59082-17.81934,4.12109-4.97656,10.19019-7.83008,16.65137-7.83008h161.99414c6.46118,0,12.53027,2.85352,16.65137,7.83008,4.12134,4.97656,5.79468,11.47168,4.59082,17.81934l-13.98877,73.75781c-1.93311,10.19434-10.8667,17.59277-21.24219,17.59277Z"
                    fill="#3f3d56" />
                <path
                    d="M502.07483,363.24805c-33.24658-79.58984-66.54834-119.94531-98.97998-119.94531s-65.7334,40.35547-98.97998,119.94531l-5.53613-2.3125c16.99463-40.68457,34.26807-71.6748,51.33984-92.10938,17.47559-20.91797,35.3667-31.52344,53.17627-31.52344s35.70068,10.60547,53.17627,31.52344c17.07178,20.43457,34.34521,51.4248,51.33984,92.10938l-5.53613,2.3125Z"
                    fill="#3f3d56" />
            </g>
        </g>
        <path id="uuid-9d9a93d5-477f-4408-ba58-a51ce76fe99f-9"
            d="M368.2428,229.68192c13.34067-7.73537,28.14563-7.12206,33.06708,1.36884,4.92145,8.49091-1.90414,21.64192-15.25061,29.37827-5.28897,3.16348-11.25864,5.01434-17.40955,5.39771l-56.9389,32.06119-14.47583-27.04044,57.66855-28.73581c3.38995-5.14912,7.96402-9.41132,13.33929-12.42973l-.00003-.00002Z"
            fill="#ffb6b6" />
    </g>
</svg>