<svg xmlns="http://www.w3.org/2000/svg" width="731.67004" height="688.5769"
    viewBox="0 0 731.67004 688.5769" xmlns:xlink="http://www.w3.org/1999/xlink" role="img"
    artist="Katerina Limpitsouni" source="https://undraw.co/">
    <g>
        <g>
            <path
                d="M239.75101,576.51318c2.62222-3.82184,7.88228-4.86407,12.49023-4.36475,4.60794,.49933,9.03729,2.19214,13.65994,2.52905,3.80994,.27765,7.62497-.375,11.44495-.39734,4.96689-.02899,9.93729,1.02472,14.46518,3.06653,14.83035,6.68756,23.26904,23.39185,24.08331,39.63989,.81427,16.24811-4.77023,32.13434-11.52051,46.93622-3.90125,8.55457-8.75089,17.46625-17.16232,21.66724-6.68756,3.34003-14.52374,3.12634-21.99341,2.83826-11.11749-.42877-22.23499-.8576-33.35249-1.28638-5.36028-.20673-10.72055-.41345-16.08083-.62024-7.64751-.29498-15.36678-.60022-22.77-2.54028-17.18192-4.50269-31.62926-18.27966-36.94252-35.22845-5.45586-17.40363-1.43201-36.76855,7.48218-52.68054,5.45729-9.74133,13.38908-18.94885,24.15369-21.91516,5.78992-1.59546,11.91354-1.25153,17.90868-.89502,10.92435,.64954,21.84868,1.29907,32.77303,1.94867"
                fill="#89341a" />
            <g>
                <path
                    d="M242.5222,583.89734s19.30714,5.03662,7.55498,5.03662-25.79796,0-25.4906-2.51831c.30734-2.51831,20.45395-42.81152,22.97227-42.81152s16.78883,2.51831,10.91273,8.39441c-5.87608,5.8761-15.94939,31.8988-15.94939,31.8988Z"
                    fill="#282734" />
                <g>
                    <path
                        d="M237.84064,682.94281c19.04675-13.96814,8.90807-84.42352,8.4668-87.41553l-1.25037,.1839c.10677,.72577,10.47256,72.69196-7.96443,86.21204l.748,1.01953v.00006Z"
                        fill="#282734" />
                    <path
                        d="M271.20236,676.72803c14.82413-27.67212,8.99692-49.79602,1.49783-63.48334-8.11316-14.80872-19.90088-23.19714-20.01877-23.28046l-.72701,1.03436c.11603,.08148,11.69392,8.32977,19.66081,22.89594,7.33185,13.40527,13.01834,35.08423-1.52747,62.23608l1.11459,.59741Z"
                        fill="#282734" />
                    <path
                        d="M208.50835,682.63489l1.19852-.40363c-13.87927-41.25085,16.92062-90.28778,17.23291-90.77777l-1.06522-.68011c-.07899,.12402-7.96999,12.5882-14.01691,30.03339-5.59084,16.12946-10.71016,39.94928-3.34932,61.82812h.00002Z"
                        fill="#282734" />
                    <path
                        d="M172.29411,674.11932l1.26147-.07159c-2.15141-37.88855,9.15121-59.29962,19.01218-70.58929,10.64598-12.18823,21.89246-15.49683,22.00478-15.52893l-.34561-1.21582c-.47398,.13513-11.72107,3.44562-22.61143,15.91339-10.01524,11.4668-21.49747,33.1778-19.32137,71.49219l-.00002,.00006Z"
                        fill="#282734" />
                    <path
                        d="M301.59738,641.17358c3.25861-14.95312,1.4176-27.49628-5.47235-37.2807-11.3483-16.11523-32.7674-19.06586-32.98218-19.09363l-.16293,1.25281c.20984,.02777,21.09631,2.91669,32.11752,18.57709,6.6727,9.48199,8.44397,21.68695,5.26437,36.27533l1.23557,.2691Z"
                        fill="#282734" />
                    <path
                        d="M253.80713,584.12036c.22835-.08704,22.98792-8.61676,33.73016-.09564l.78503-.98993c-11.30573-8.96796-34.00542-.46161-34.96571-.09564l.45053,1.18121h-.00002Z"
                        fill="#282734" />
                    <path
                        d="M233.35822,582.29669c.00432-.08575,.31229-8.6402-9.40858-11.64392l-.37276,1.20715c8.75993,2.70746,8.53284,10.06464,8.51863,10.37628l1.26271,.06049Z"
                        fill="#282734" />
                    <path
                        d="M223.25595,587.69867l1.0146-.75354c-.11542-.15491-11.73094-15.47156-28.40471-9.7005l.4135,1.19482c15.78999-5.4668,26.86674,9.11108,26.97661,9.25922Z"
                        fill="#282734" />
                </g>
            </g>
        </g>
    </g>
    <path
        d="M0,686.03192c0,.66003,.53003,1.19,1.19006,1.19H730.48004c.65997,0,1.19-.52997,1.19-1.19,0-.65997-.53003-1.19-1.19-1.19H1.19006c-.66003,0-1.19006,.53003-1.19006,1.19Z"
        fill="#282734" />
</svg>