<svg xmlns="http://www.w3.org/2000/svg" width="731.67004" height="688.5769"
    viewBox="0 0 731.67004 688.5769" xmlns:xlink="http://www.w3.org/1999/xlink" role="img"
    artist="Katerina Limpitsouni" source="https://undraw.co/">
    <g>
        <g>
            <path
                d="M552.43872,576.51318c-2.62225-3.82184-7.88226-4.86407-12.49023-4.36475s-9.03729,2.19214-13.65997,2.52905c-3.80994,.27765-7.625-.375-11.44495-.39734-4.96689-.02899-9.93729,1.02472-14.46518,3.06653-14.83035,6.68756-23.26904,23.39185-24.08331,39.63989-.81427,16.24811,4.77023,32.13434,11.52051,46.93622,3.90125,8.55457,8.75089,17.46625,17.16232,21.66724,6.68756,3.34003,14.52374,3.12634,21.99341,2.83826,11.11749-.42877,22.23499-.8576,33.35248-1.28638,5.36029-.20673,10.72052-.41345,16.08081-.62024,7.64752-.29498,15.36676-.60022,22.77002-2.54028,17.18188-4.50269,31.62927-18.27966,36.9425-35.22845,5.45587-17.40363,1.43201-36.76855-7.48218-52.68054-5.45728-9.74133-13.3891-18.94885-24.15369-21.91516-5.78992-1.59546-11.91351-1.25153-17.90869-.89502-10.92432,.64954-21.84869,1.29907-32.77301,1.94867"
                fill="#89341a" />
            <g>
                <path
                    d="M549.66754,583.89734s-19.30719,5.03662-7.55499,5.03662,25.79797,0,25.4906-2.51831-20.45398-42.81152-22.97229-42.81152-16.78882,2.51831-10.91272,8.39441,15.9494,31.8988,15.9494,31.8988Z"
                    fill="#282734" />
                <g>
                    <path
                        d="M554.34912,682.94281c-19.04675-13.96814-8.90808-84.42352-8.4668-87.41553l1.25037,.1839c-.10675,.72577-10.47253,72.69196,7.96442,86.21204l-.74799,1.01953v.00006Z"
                        fill="#282734" />
                    <path
                        d="M520.98737,676.72803c-14.82413-27.67212-8.99692-49.79602-1.49786-63.48334,8.11316-14.80872,19.90088-23.19714,20.01874-23.28046l.72699,1.03436c-.11603,.08148-11.69391,8.32977-19.66083,22.89594-7.33185,13.40527-13.01834,35.08423,1.52747,62.23608l-1.11456,.59741h.00006Z"
                        fill="#282734" />
                    <path
                        d="M583.6814,682.63489l-1.19855-.40363c13.87927-41.25085-16.92065-90.28778-17.23291-90.77777l1.06525-.68011c.07898,.12402,7.96997,12.5882,14.01691,30.03339,5.59082,16.12946,10.71014,39.94928,3.3493,61.82812Z"
                        fill="#282734" />
                    <path
                        d="M619.89563,674.11932l-1.26147-.07159c2.15143-37.88855-9.15125-59.29962-19.01221-70.58929-10.646-12.18823-21.89246-15.49683-22.00476-15.52893l.34558-1.21582c.474,.13513,11.72107,3.44562,22.61145,15.91339,10.01526,11.4668,21.4975,33.1778,19.32135,71.49219l.00006,.00006Z"
                        fill="#282734" />
                    <path
                        d="M490.59232,641.17358c-3.25861-14.95312-1.4176-27.49628,5.47235-37.2807,11.3483-16.11523,32.76743-19.06586,32.98215-19.09363l.1629,1.25281c-.20984,.02777-21.09631,2.91669-32.11752,18.57709-6.6727,9.48199-8.44397,21.68695-5.26437,36.27533l-1.23557,.2691h.00006Z"
                        fill="#282734" />
                    <path
                        d="M538.38263,584.12036c-.22833-.08704-22.98792-8.61676-33.73016-.09564l-.78503-.98993c11.30573-8.96796,34.00543-.46161,34.9657-.09564l-.4505,1.18121Z"
                        fill="#282734" />
                    <path
                        d="M558.83154,582.29669c-.00433-.08575-.31226-8.6402,9.40857-11.64392l.37274,1.20715c-8.75995,2.70746-8.53284,10.06464-8.51862,10.37628l-1.2627,.06049Z"
                        fill="#282734" />
                    <path
                        d="M568.93378,587.69867l-1.01459-.75354c.11542-.15491,11.73096-15.47156,28.40472-9.7005l-.41351,1.19482c-15.78998-5.4668-26.86676,9.11108-26.97662,9.25922Z"
                        fill="#282734" />
                </g>
            </g>
        </g>
    </g>
</svg>