<?xml version="1.0" encoding="UTF-8" standalone="no"?>
<!-- Created with Inkscape (http://www.inkscape.org/) -->

<svg
   xmlns:osb="http://www.openswatchbook.org/uri/2009/osb"
   xmlns:dc="http://purl.org/dc/elements/1.1/"
   xmlns:cc="http://creativecommons.org/ns#"
   xmlns:rdf="http://www.w3.org/1999/02/22-rdf-syntax-ns#"
   xmlns:svg="http://www.w3.org/2000/svg"
   xmlns="http://www.w3.org/2000/svg"
   xmlns:xlink="http://www.w3.org/1999/xlink"
   xmlns:sodipodi="http://sodipodi.sourceforge.net/DTD/sodipodi-0.dtd"
   xmlns:inkscape="http://www.inkscape.org/namespaces/inkscape"
   width="600.67816"
   height="600.67816"
   id="svg2"
   version="1.1"
   inkscape:version="0.48.5 r10040"
   sodipodi:docname="disegno.svg"
   inkscape:export-filename="/home/francesco/sources/app/halloween/v1.6.0a/img/pumpkin-16.png"
   inkscape:export-xdpi="2.3972905"
   inkscape:export-ydpi="2.3972905">
  <defs
     id="defs4">
    <linearGradient
       id="linearGradient3906">
      <stop
         id="stop3908"
         offset="0"
         style="stop-color:#452200;stop-opacity:1;" />
      <stop
         style="stop-color:#452200;stop-opacity:1;"
         offset="0.49603924"
         id="stop3912" />
      <stop
         id="stop3914"
         offset="0.75"
         style="stop-color:#a25000;stop-opacity:1;" />
      <stop
         id="stop3916"
         offset="1"
         style="stop-color:#452200;stop-opacity:1;" />
    </linearGradient>
    <linearGradient
       id="linearGradient3892"
       osb:paint="solid">
      <stop
         style="stop-color:#ca9500;stop-opacity:1;"
         offset="0"
         id="stop3894" />
    </linearGradient>
    <linearGradient
       id="linearGradient3878">
      <stop
         style="stop-color:#452200;stop-opacity:1;"
         offset="0"
         id="stop3880" />
      <stop
         id="stop3890"
         offset="0.25"
         style="stop-color:#a25000;stop-opacity:1;" />
      <stop
         id="stop3886"
         offset="0.49603924"
         style="stop-color:#452200;stop-opacity:1;" />
      <stop
         style="stop-color:#a25000;stop-opacity:1;"
         offset="0.75"
         id="stop3888" />
      <stop
         style="stop-color:#452200;stop-opacity:1;"
         offset="1"
         id="stop3882" />
    </linearGradient>
    <linearGradient
       id="linearGradient3864">
      <stop
         id="stop3866"
         offset="0"
         style="stop-color:#ffb800;stop-opacity:1;" />
      <stop
         id="stop3868"
         offset="0.31881571"
         style="stop-color:#ff2300;stop-opacity:1;" />
      <stop
         style="stop-color:#ffffff;stop-opacity:0.85798818;"
         offset="0.52152777"
         id="stop3870" />
      <stop
         id="stop3872"
         offset="0.59547079"
         style="stop-color:#ffd700;stop-opacity:1;" />
      <stop
         id="stop3874"
         offset="0.76076388"
         style="stop-color:#ffaf00;stop-opacity:1;" />
      <stop
         id="stop3876"
         offset="1"
         style="stop-color:#ff5f00;stop-opacity:1;" />
    </linearGradient>
    <linearGradient
       id="linearGradient3778">
      <stop
         style="stop-color:#ffb800;stop-opacity:1;"
         offset="0"
         id="stop3780" />
      <stop
         style="stop-color:#ff2300;stop-opacity:1;"
         offset="0.1875"
         id="stop3792" />
      <stop
         id="stop3788"
         offset="0.52152777"
         style="stop-color:#ffffff;stop-opacity:0.85798818;" />
      <stop
         style="stop-color:#ffd700;stop-opacity:1;"
         offset="0.64114583"
         id="stop3859" />
      <stop
         style="stop-color:#ffaf00;stop-opacity:1;"
         offset="0.76076388"
         id="stop3857" />
      <stop
         style="stop-color:#ff5f00;stop-opacity:1;"
         offset="1"
         id="stop3782" />
    </linearGradient>
    <radialGradient
       inkscape:collect="always"
       xlink:href="#linearGradient3778-8"
       id="radialGradient3806-7"
       gradientUnits="userSpaceOnUse"
       gradientTransform="matrix(1,0,0,0.94888105,0,21.936435)"
       cx="429.14285"
       cy="429.12527"
       fx="429.14285"
       fy="429.12527"
       r="18.607141" />
    <linearGradient
       id="linearGradient3778-8">
      <stop
         style="stop-color:#ffa400;stop-opacity:1;"
         offset="0"
         id="stop3780-1" />
      <stop
         id="stop3790-7"
         offset="0.125"
         style="stop-color:#ffdf00;stop-opacity:1;" />
      <stop
         style="stop-color:#ff2300;stop-opacity:1;"
         offset="0.1875"
         id="stop3792-4" />
      <stop
         id="stop3788-6"
         offset="0.25"
         style="stop-color:#ffbf00;stop-opacity:1;" />
      <stop
         id="stop3786-0"
         offset="0.5"
         style="stop-color:#ff8000;stop-opacity:1;" />
      <stop
         style="stop-color:#ffff00;stop-opacity:0;"
         offset="1"
         id="stop3782-4" />
    </linearGradient>
    <radialGradient
       inkscape:collect="always"
       xlink:href="#linearGradient3864"
       id="radialGradient3862"
       gradientUnits="userSpaceOnUse"
       gradientTransform="matrix(12.274286,-3.7991881e-6,3.3037137e-6,10.820454,-4893.5632,-4161.8545)"
       cx="429.14285"
       cy="429.12527"
       fx="429.14285"
       fy="429.12527"
       r="18.607141" />
    <linearGradient
       inkscape:collect="always"
       xlink:href="#linearGradient3878"
       id="linearGradient3884"
       x1="383.06781"
       y1="426.10199"
       x2="473.23801"
       y2="426.10199"
       gradientUnits="userSpaceOnUse"
       gradientTransform="matrix(5.2230679,0,0,5.2230679,-1862.3761,-1744.8586)" />
  </defs>
  <sodipodi:namedview
     id="base"
     pagecolor="#ffffff"
     bordercolor="#666666"
     borderopacity="1.0"
     inkscape:pageopacity="0.0"
     inkscape:pageshadow="2"
     inkscape:zoom="0.35"
     inkscape:cx="288.57257"
     inkscape:cy="71.576788"
     inkscape:document-units="px"
     inkscape:current-layer="layer1"
     showgrid="false"
     inkscape:object-nodes="true"
     inkscape:snap-smooth-nodes="true"
     inkscape:window-width="1285"
     inkscape:window-height="744"
     inkscape:window-x="81"
     inkscape:window-y="24"
     inkscape:window-maximized="1"
     inkscape:snap-object-midpoints="true"
     fit-margin-top="0"
     fit-margin-left="0"
     fit-margin-right="0"
     fit-margin-bottom="0" />
  <metadata
     id="metadata7">
    <rdf:RDF>
      <cc:Work
         rdf:about="">
        <dc:format>image/svg+xml</dc:format>
        <dc:type
           rdf:resource="http://purl.org/dc/dcmitype/StillImage" />
        <dc:title></dc:title>
      </cc:Work>
    </rdf:RDF>
  </metadata>
  <g
     inkscape:label="Livello 1"
     inkscape:groupmode="layer"
     id="layer1"
     transform="translate(-73.521347,-179.97444)">
    <path
       sodipodi:type="arc"
       style="fill:#000000;fill-opacity:1;fill-rule:nonzero;stroke:#ff8500;stroke-width:0.1;stroke-linecap:round;stroke-linejoin:round;stroke-miterlimit:4;stroke-opacity:1;stroke-dasharray:none;stroke-dashoffset:0"
       id="path3918"
       sodipodi:cx="399.13654"
       sodipodi:cy="425.18372"
       sodipodi:rx="57.452427"
       sodipodi:ry="57.452427"
       d="m 456.58896,425.18372 c 0,31.7301 -25.72233,57.45242 -57.45242,57.45242 -31.7301,0 -57.45243,-25.72232 -57.45243,-57.45242 0,-31.7301 25.72233,-57.45243 57.45243,-57.45243 31.73009,0 57.45242,25.72233 57.45242,57.45243 z"
       transform="matrix(5.2230679,0,0,5.2230679,-1710.8568,-1740.4499)" />
    <path
       style="fill:#000000;fill-opacity:1;fill-rule:nonzero;stroke:none"
       d="m 603.56499,478.07135 c 0,57.08524 -28.07267,124.52884 -72.62542,162.04403 -43.33896,36.49321 -98.05236,40.37528 -159.5708,40.37528 -44.80223,0 -92.90314,-6.92615 -126.86741,-27.24284 -47.81196,-28.60008 -96.06242,-97.56608 -96.06242,-169.74038 0,-112.61518 106.33391,-199.55079 231.09375,-199.55079 124.75984,0 224.0323,81.49952 224.0323,194.1147 z"
       id="path3776-4"
       inkscape:connector-curvature="0"
       sodipodi:nodetypes="sssssss" />
    <path
       style="fill:url(#radialGradient3862);fill-opacity:1;fill-rule:nonzero;stroke:none"
       d="m 602.24988,481.47408 c 0,44.56682 -16.09458,91.16271 -44.87654,124.0706 -43.03003,49.19831 -113.0028,74.946 -188.58398,74.946 -77.56445,0 -103.21205,-0.91116 -152.31537,-49.73609 -29.49545,-29.32826 -71.00297,-106.4621 -71.00297,-149.28051 0,-111.19565 102.25346,-201.33771 228.38945,-201.33771 126.136,0 228.38941,90.14206 228.38941,201.33771 z"
       id="path3776"
       inkscape:connector-curvature="0"
       sodipodi:nodetypes="sssssss" />
    <path
       style="fill:url(#linearGradient3884);fill-opacity:1;stroke:none"
       d="m 453.8913,276.14217 c -66.87115,1.13588 -136.53166,-2.36129 -200.59844,27.58433 -228.713857,106.90373 -65.63265,379.98718 56.80086,381.28396 75.66689,0.80143 90.81572,-0.0479 135.79976,-3.91729 210.83269,-18.13612 222.23908,-408.59001 7.99782,-404.951 z m 31.01197,81.12079 c 11.04684,7.37001 16.08972,16.4313 21.05549,25.62567 1.20371,6.25994 1.3134,11.43669 0.65289,15.83243 -9.6207,14.92845 -14.21724,17.49011 -20.40261,23.83024 -22.45335,3.80224 -48.59307,2.16894 -73.28617,2.61153 28.06588,-23.7567 44.97521,-51.07084 71.9804,-67.89987 z m -234.05873,6.52882 c 22.53816,26.42392 55.36427,39.73393 78.99891,67.89989 l -74.59195,0 c -10.18628,-6.75009 -22.30442,-10.63928 -23.01415,-31.01197 2.64112,-14.90229 5.0655,-29.85823 18.60719,-36.88792 z M 550.19161,406.066 c 23.86155,46.67682 84.95228,59.01664 7.18173,199.12945 3.84793,-14.17878 -0.14288,-21.22476 0.65288,-30.35907 -5.2229,14.13086 -10.28135,27.19667 -29.05332,49.45592 1.64925,-9.38716 2.07476,-18.5829 -0.65287,-27.09467 -2.48312,2.96613 -11.65978,28.53582 -32.31773,42.27421 -9.14378,-5.25749 -9.66624,-11.73513 -13.22091,-17.79108 -5.85689,7.28085 -11.08915,14.65478 -11.75189,23.66703 -6.85931,-7.02001 -6.62688,-16.341 -8.6507,-24.9728 -6.23588,11.35108 -10.64618,24.48721 -15.17956,37.54081 -13.39293,-8.55992 -27.03663,-17.06883 -31.01195,-29.05331 -6.73312,7.77614 -10.62305,18.44766 -13.87377,29.70618 -13.36094,-10.17228 -17.12765,-22.4431 -23.01415,-34.27637 -1.14903,15.23454 -9.48729,26.30148 -16.48532,38.19369 -11.25566,-8.24832 -20.4883,-17.14985 -23.01414,-28.89009 -5.80528,6.88008 -10.68382,14.17346 -11.26223,23.66701 -10.3515,-6.47561 -15.89176,-15.2504 -21.0555,-24.31991 -3.11994,8.19286 -7.1662,16.51121 -6.03918,23.66704 -16.84782,-12.01086 -37.2598,-21.55618 -43.41673,-40.96845 -1.65986,9.68629 -4.61392,19.55632 1.30576,28.40044 -15.61577,-8.14554 -28.10774,-19.9761 -38.3569,-34.27639 -0.057,10.55222 5.24615,21.11264 11.26222,31.66486 -102.38752,-98.93426 -44.5102,-188.30002 -29.70618,-212.35036 -7.84788,41.22473 -11.58018,79.43988 -1.95866,107.56256 6.3393,-17.07024 13.2256,-33.85359 29.05332,-44.88575 0.85868,28.83755 0.25629,58.01225 13.87377,83.73232 0.78069,-21.36179 12.92198,-39.65919 30.35908,-56.63766 6.18563,28.73278 14.00915,56.54714 34.92928,78.34602 5.09185,-19.55662 16.2113,-37.50877 28.2372,-55.33188 1.83261,-1.74344 33.13003,40.98365 30.35908,55.33188 7.96905,-13.46815 17.73205,-46.99162 15.83243,-53.37322 9.70446,12.96146 18.8066,21.78041 31.01197,51.41458 12.61506,-17.56173 19.47937,-38.80741 25.13602,-60.71817 16.66016,9.94941 26.07536,33.38001 36.88791,54.18933 22.81247,-55.0643 20.61622,-89.00087 21.05549,-87.15994 13.91858,9.43515 23.6983,36.43292 34.27637,60.06528 7.14716,-19.23557 9.31942,-47.78904 6.03919,-89.60826 9.90804,8.09847 20.9355,29.54334 31.66484,47.49727 0.27296,-44.87577 -5.30882,-83.50248 -19.09685,-113.4385 z m -211.04457,60.06528 62.84003,0.32643 c -11.81275,12.14212 -21.14036,24.41937 -29.86943,36.56149 -12.75128,-15.33524 -22.67151,-27.07008 -32.9706,-36.88792 z"
       id="path2996"
       inkscape:connector-curvature="0" />
    <path
       style="fill:none;stroke:#ff8500;stroke-width:0.5223068;stroke-linecap:butt;stroke-linejoin:miter;stroke-miterlimit:4;stroke-opacity:1;stroke-dasharray:none"
       d="m 253.33814,303.77215 c -67.28357,19.31915 314.24091,18.19341 200.49164,-27.6995"
       id="path3766"
       inkscape:connector-curvature="0"
       sodipodi:nodetypes="cc" />
    <path
       style="fill:#311800;fill-opacity:1;stroke:none"
       d="m 333.1778,304.47565 c 16.67204,-14.81961 17.10822,-37.17732 14.45671,-50.83163 17.18296,-0.2272 32.64418,-5.59615 32.64418,-5.59615 12.0444,17.33845 4.67481,28.77122 36.84128,52.23068 -27.50656,8.81794 -56.29141,15.07001 -83.94217,4.1971 z"
       id="path3768"
       inkscape:connector-curvature="0"
       sodipodi:nodetypes="ccccc" />
    <g
       id="g3759">
      <g
         id="g3766" />
    </g>
  </g>
</svg>
